<svg xmlns="http://www.w3.org/2000/svg" viewBox="0 0 29 29" width="29" height="29">
	<defs>
		<linearGradient id="grd1" gradientUnits="userSpaceOnUse"  x1="14.513" y1="24.996" x2="14.513" y2="2.004">
			<stop offset="0" stop-color="#d5c10d"  />
			<stop offset="0.938" stop-color="#ffe722"  />
		</linearGradient>
	</defs>
	<style>
		tspan { white-space:pre }
		.shp0 { fill: url(#grd1);stroke: #000000;paint-order:stroke fill markers;stroke-opacity:0.18;stroke-width: 2 } 
	</style>
	<g id="Search">
		<g id="Title">
			<path id="Shape 48" class="shp0" d="M3.03 10.58C3.03 11.76 3.26 12.87 3.71 13.91C4.15 14.95 4.76 15.86 5.53 16.64C6.3 17.41 7.2 18.02 8.24 18.47C9.28 18.92 10.4 19.15 11.58 19.15C12.49 19.15 13.37 19.01 14.19 18.74C15.02 18.47 15.79 18.08 16.5 17.59L23.88 25C24.32 24.89 24.75 24.66 25.17 24.29C25.6 23.93 25.87 23.46 25.99 22.88L18.59 15.5C19.08 14.79 19.46 14.02 19.74 13.2C20.01 12.37 20.15 11.49 20.15 10.58C20.15 9.4 19.92 8.28 19.47 7.24C19.02 6.2 18.41 5.29 17.63 4.52C16.86 3.74 15.95 3.13 14.91 2.68C13.87 2.23 12.76 2 11.58 2C10.4 2 9.28 2.23 8.24 2.68C7.2 3.13 6.3 3.74 5.53 4.52C4.76 5.29 4.15 6.2 3.71 7.24C3.26 8.28 3.03 9.4 3.03 10.58ZM5.54 10.58C5.54 9.75 5.7 8.96 6.02 8.22C6.34 7.48 6.77 6.84 7.32 6.29C7.86 5.74 8.5 5.31 9.23 4.99C9.97 4.68 10.75 4.52 11.6 4.52C12.43 4.52 13.21 4.68 13.94 4.99C14.68 5.31 15.32 5.74 15.86 6.29C16.41 6.84 16.84 7.48 17.16 8.22C17.48 8.96 17.63 9.75 17.63 10.58C17.63 11.42 17.48 12.21 17.16 12.94C16.84 13.68 16.41 14.32 15.86 14.86C15.32 15.41 14.68 15.84 13.94 16.16C13.21 16.48 12.43 16.64 11.6 16.64C10.75 16.64 9.97 16.48 9.23 16.16C8.5 15.84 7.86 15.41 7.32 14.86C6.77 14.32 6.34 13.68 6.02 12.94C5.7 12.21 5.54 11.42 5.54 10.58Z" />
		</g>
	</g>
</svg>